<svg width="18" height="18" viewBox="0 0 18 18" xmlns="http://www.w3.org/2000/svg">
<path d="M8.96198 9.67401C6.30559 9.67401 4.12498 7.49339 4.12498 4.837C4.12498 2.14097 6.26595 0 8.96198 0C11.658 0 13.799 2.18062 13.799 4.837C13.7593 7.49339 11.6184 9.67401 8.96198 9.67401ZM8.96198 1.5859C7.17784 1.5859 5.71088 3.05286 5.71088 4.837C5.71088 6.62115 7.17784 8.08811 8.96198 8.08811C10.7461 8.08811 12.2131 6.62115 12.2131 4.837C12.2131 3.05286 10.7461 1.5859 8.96198 1.5859ZM17.0897 15.1454C17.0897 13.0837 15.3452 10.9031 13.9179 9.43612L12.7682 10.5463C14.5126 12.2907 15.5038 13.9559 15.5038 15.1454V16.4141H2.42013V15.1454C2.42013 13.9559 3.37167 12.2907 5.07652 10.5463L3.92674 9.43612C2.53907 10.9031 0.834229 13.0837 0.834229 15.1454V18H17.0897V15.1454Z" fill="#111111"/>
</svg>
