<svg width="14" height="16" viewBox="0 0 14 16" fill="none" xmlns="http://www.w3.org/2000/svg">
<path d="M6.16623 1.03657L1.26729 5.5307C0.815851 5.94484 0.815851 6.63506 1.26729 7.0492C1.71873 7.46333 2.47113 7.46333 2.92256 7.0492L5.83183 4.39566L5.83183 14.2122C5.83183 14.8104 6.35015 15.2859 7.00223 15.2859C7.65431 15.2859 8.17262 14.8104 8.17262 14.2122L8.17262 4.39566L11.0652 7.0492C11.5166 7.46333 12.269 7.46333 12.7204 7.0492C12.9545 6.83446 13.0716 6.55837 13.0716 6.28228C13.0716 6.00619 12.9545 5.7301 12.7204 5.51536L7.83823 1.03657C7.62087 0.837168 7.31991 0.714461 7.00223 0.714461C6.68455 0.714461 6.38359 0.821829 6.16623 1.03657Z" fill="currentColor"/>
</svg>
