<svg width="14" height="16" viewBox="0 0 14 16" fill="none" xmlns="http://www.w3.org/2000/svg">
<path d="M7.83401 14.9637L12.733 10.4695C13.1844 10.0554 13.1844 9.36518 12.733 8.95105C12.2815 8.53691 11.5291 8.53691 11.0777 8.95105L8.16841 11.6046L8.16841 1.78804C8.16841 1.18984 7.65009 0.714355 6.99802 0.714355C6.34594 0.714355 5.82762 1.18984 5.82762 1.78804L5.82762 11.6046L2.93507 8.95105C2.48363 8.53691 1.73124 8.53691 1.2798 8.95105C1.04572 9.16578 0.928677 9.44187 0.928677 9.71796C0.928677 9.99405 1.04572 10.2701 1.2798 10.4849L6.16202 14.9637C6.37938 15.1631 6.68034 15.2858 6.99801 15.2858C7.31569 15.2858 7.61665 15.1784 7.83401 14.9637Z" fill="currentColor"/>
</svg>
