<svg width="28" height="28" viewBox="0 0 28 28" fill="none" xmlns="http://www.w3.org/2000/svg">
<path d="M27.578 17.3866C25.7081 24.8866 18.1118 29.4511 10.6109 27.5808C3.11301 25.7109 -1.45142 18.1141 0.419327 10.6145C2.28833 3.11358 9.88464 -1.45129 17.3834 0.418582C24.8839 2.28846 29.4479 9.88608 27.578 17.3866Z" fill="#F7931A"/>
<path d="M20.173 12.0055C20.4516 10.1426 19.0333 9.14117 17.0938 8.47311L17.723 5.94961L16.1869 5.5668L15.5744 8.0238C15.1706 7.92317 14.7558 7.82824 14.3437 7.73417L14.9606 5.26099L13.4254 4.87817L12.7958 7.4008C12.4616 7.32467 12.1335 7.24942 11.815 7.17024L11.8167 7.16236L9.69833 6.63342L9.28971 8.27405C9.28971 8.27405 10.4294 8.53524 10.4053 8.55142C11.0275 8.70674 11.1399 9.11842 11.1211 9.4448L10.4045 12.3196C10.4473 12.3305 10.5029 12.3463 10.5641 12.3708C10.513 12.3581 10.4583 12.3441 10.4018 12.3305L9.39733 16.3577C9.32121 16.5467 9.12827 16.8302 8.69339 16.7226C8.70871 16.7449 7.57689 16.4439 7.57689 16.4439L6.81433 18.2022L8.81327 18.7005C9.18514 18.7937 9.54958 18.8913 9.90833 18.9832L9.27264 21.5355L10.807 21.9184L11.4365 19.3931C11.8556 19.5069 12.2625 19.6119 12.6606 19.7107L12.0333 22.2242L13.5693 22.607L14.205 20.0594C16.8243 20.5551 18.794 20.3552 19.623 17.9861C20.2911 16.0786 19.5898 14.9783 18.2116 14.2608C19.2153 14.0294 19.9713 13.3692 20.173 12.0055ZM16.6633 16.9269C16.1886 18.8344 12.977 17.8032 11.9357 17.5447L12.7792 14.1632C13.8205 14.4231 17.1595 14.9376 16.6633 16.9269ZM17.1385 11.9779C16.7053 13.713 14.0322 12.8315 13.1651 12.6154L13.9298 9.54849C14.797 9.76461 17.5895 10.168 17.1385 11.9779Z" fill="white"/>
</svg>
