<svg width="15" height="15" viewBox="0 0 15 15" fill="none" xmlns="http://www.w3.org/2000/svg">
<path d="M7.5 0C3.36316 0 0 3.36316 0 7.5C0 11.6368 3.36316 15 7.5 15C11.6368 15 15 11.6368 15 7.5C15 3.36316 11.6368 0 7.5 0ZM11.1316 5.81053L6.82105 10.5632C6.71053 10.6895 6.50526 10.6895 6.37895 10.5789L3.69474 7.87895C3.56842 7.75263 3.56842 7.56316 3.69474 7.45263L4.48421 6.66316C4.61053 6.53684 4.8 6.53684 4.91053 6.66316L6.55263 8.32105L9.86842 4.65789C9.97895 4.53158 10.1684 4.53158 10.2947 4.64211L11.1158 5.38421C11.2421 5.49474 11.2421 5.68421 11.1316 5.81053Z" fill="currentColor"/>
</svg>
