<svg width="24"
  height="24"
  viewBox="0 0 24 24"
  fill="none"
  xmlns="http://www.w3.org/2000/svg">
  <path d="M23.2723 9.41766H21.6216C21.3968 8.57814 21.0618 7.77205 20.6254 7.02036L21.7943 5.85154H21.7944C21.9301 5.71565 22.0066 5.53137 22.0066 5.33927C22.0066 5.14717 21.9301 4.96289 21.7944 4.82699L19.1683 2.20085C19.0324 2.06514 18.8481 1.98873 18.656 1.98873C18.4639 1.98873 18.2796 2.06514 18.1437 2.20085L16.9766 3.37055C16.2249 2.93414 15.4189 2.59926 14.5793 2.37437V0.724569C14.5793 0.532466 14.5029 0.348188 14.367 0.212295C14.2311 0.0764032 14.047 0 13.8547 0H10.1422C9.9499 0 9.76581 0.0764032 9.62992 0.212295C9.49402 0.348188 9.41762 0.532466 9.41762 0.724569V2.37525C8.5781 2.6001 7.77201 2.93503 7.02032 3.37144L5.8515 2.20262V2.20244C5.71561 2.06672 5.53133 1.99032 5.33923 1.99032C5.14712 1.99032 4.96284 2.06672 4.82695 2.20244L2.20081 4.82858C2.0651 4.96447 1.98869 5.14875 1.98869 5.34086C1.98869 5.53296 2.0651 5.71724 2.20081 5.85313L3.36963 7.02195H3.36981C2.93339 7.77364 2.59851 8.57968 2.37362 9.41925H0.724569C0.532466 9.41925 0.348188 9.49565 0.212295 9.63155C0.0764033 9.76726 0 9.95154 0 10.1438V13.8565V13.8564C0 14.0486 0.0764033 14.2327 0.212295 14.3686C0.348188 14.5045 0.532466 14.5809 0.724569 14.5809H2.37525C2.6001 15.4205 2.93503 16.2265 3.37144 16.9782L2.20262 18.1471H2.20244C2.06673 18.2829 1.99032 18.4672 1.99032 18.6593C1.99032 18.8514 2.06673 19.0357 2.20244 19.1716L4.82858 21.7977C4.96447 21.9335 5.14875 22.0099 5.34086 22.0099C5.53296 22.0099 5.71724 21.9335 5.85313 21.7977L7.02195 20.6289V20.6287C7.77364 21.0652 8.57968 21.4 9.41925 21.6249V23.2756C9.41925 23.4677 9.49565 23.652 9.63155 23.7879C9.76726 23.9238 9.95154 24 10.1438 24H13.8565H13.8564C14.0486 24 14.2327 23.9238 14.3686 23.7879C14.5045 23.652 14.5809 23.4677 14.5809 23.2756V21.6249C15.4205 21.4001 16.2265 21.0652 16.9782 20.6287L18.1471 21.7976V21.7977C18.2829 21.9335 18.4672 22.0099 18.6593 22.0099C18.8514 22.0099 19.0357 21.9335 19.1716 21.7977L21.7977 19.1716C21.9335 19.0357 22.0099 18.8514 22.0099 18.6593C22.0099 18.4672 21.9335 18.2829 21.7977 18.1471L20.6289 16.9782H20.6287C21.0652 16.2265 21.4 15.4205 21.6249 14.5809H23.2756C23.4677 14.5809 23.652 14.5045 23.7879 14.3686C23.9238 14.2327 24 14.0486 24 13.8564V10.1422C24 9.94936 23.9232 9.76472 23.7868 9.62866C23.6502 9.49277 23.4652 9.41691 23.2723 9.41764L23.2723 9.41766ZM22.5479 13.1304H21.0482C20.8812 13.1304 20.7193 13.1881 20.59 13.2937C20.4606 13.3993 20.3717 13.5464 20.3382 13.71C20.1219 14.7714 19.7027 15.7813 19.1041 16.6839C19.012 16.8233 18.9709 16.9901 18.9876 17.1562C19.0046 17.3223 19.0782 17.4774 19.1961 17.5955L20.2583 18.6579L18.6577 20.2585L17.5953 19.1963L17.5955 19.1961C17.4774 19.0781 17.3221 19.0044 17.156 18.9876C16.9899 18.9709 16.8231 19.012 16.6837 19.1041C15.781 19.7027 14.7714 20.1219 13.71 20.3384C13.5464 20.3718 13.3993 20.4606 13.2938 20.59C13.1881 20.7193 13.1304 20.8812 13.1304 21.0482V22.5479H10.8667V21.0482C10.8667 20.8812 10.809 20.7193 10.7033 20.59C10.5978 20.4606 10.4506 20.3718 10.2871 20.3384C9.2256 20.1219 8.21595 19.7028 7.31333 19.1041C7.17398 19.012 7.00716 18.9709 6.84106 18.9876C6.67495 19.0044 6.51962 19.0781 6.40155 19.1961L5.33919 20.2583L3.73852 18.6577L4.80074 17.5953L4.80092 17.5955C4.9188 17.4774 4.99248 17.3223 5.0094 17.1562C5.02614 16.9901 4.98502 16.8233 4.89297 16.6839C4.29431 15.7812 3.87518 14.7714 3.65886 13.71C3.62539 13.5464 3.53643 13.3993 3.40709 13.2937C3.27775 13.1881 3.11585 13.1304 2.94885 13.1304H1.44915V10.8667H2.94885C3.11585 10.8667 3.27775 10.809 3.40709 10.7033C3.53643 10.5978 3.62539 10.4506 3.65886 10.2871C3.87516 9.22559 4.29431 8.21576 4.89297 7.31314C4.98503 7.17379 5.02614 7.00697 5.0094 6.84087C4.99248 6.67478 4.91881 6.51961 4.80092 6.40154L3.7387 5.33918L5.33937 3.73851L6.40229 4.80087C6.52036 4.91894 6.67571 4.99261 6.8418 5.00935C7.00789 5.02609 7.1747 4.98497 7.31407 4.89292C8.21655 4.29426 9.22601 3.87513 10.2871 3.65862C10.4507 3.62515 10.5978 3.53638 10.7033 3.40704C10.809 3.2777 10.8667 3.11579 10.8667 2.94879V1.44909H13.1304V2.94879C13.1304 3.11579 13.1881 3.2777 13.2938 3.40704C13.3993 3.53638 13.5465 3.62515 13.71 3.65862C14.7715 3.8751 15.7811 4.29422 16.6838 4.89292C16.8231 4.98497 16.9899 5.02609 17.156 5.00935C17.3221 4.99261 17.4775 4.91894 17.5955 4.80087L18.6579 3.73865L20.2586 5.33932L19.1962 6.40224C19.0783 6.5203 19.0047 6.67548 18.9877 6.84157C18.971 7.00765 19.0121 7.17447 19.1042 7.31383C19.7028 8.21651 20.122 9.22629 20.3383 10.2878C20.3717 10.4513 20.4607 10.5985 20.59 10.704C20.7194 10.8097 20.8813 10.8674 21.0483 10.8674H22.548L22.5479 13.1304Z"
    fill="white" />
  <path d="M12.0009 6.40381C10.5172 6.40381 9.09405 6.9932 8.04497 8.04252C6.99569 9.09161 6.40625 10.5148 6.40625 11.9984C6.40625 13.4821 6.99564 14.9053 8.04497 15.9544C9.09405 17.0036 10.5172 17.5931 12.0009 17.5931C13.4846 17.5931 14.9077 17.0037 15.9568 15.9544C17.0061 14.9053 17.5955 13.4821 17.5955 11.9984C17.5937 10.5151 17.0037 9.09306 15.955 8.04434C14.9062 6.99562 13.4842 6.40562 12.0009 6.40381ZM12.0009 16.144C10.9014 16.144 9.84682 15.7072 9.06951 14.9297C8.29202 14.1524 7.85524 13.0978 7.85524 11.9983C7.85524 10.8989 8.29202 9.84428 9.06951 9.06698C9.84682 8.28949 10.9014 7.8527 12.0009 7.8527C13.1004 7.8527 14.1549 8.28948 14.9323 9.06698C15.7097 9.84428 16.1465 10.8989 16.1465 11.9983C16.1453 13.0975 15.7081 14.1513 14.9309 14.9285C14.1538 15.7056 13.1 16.1427 12.0008 16.144L12.0009 16.144Z"
    fill="white" />
</svg>
