<svg width="15" height="4" viewBox="0 0 15 4" fill="none" xmlns="http://www.w3.org/2000/svg">
<path d="M9.375 1.875C9.375 2.925 8.5125 3.75 7.5 3.75C6.4875 3.75 5.625 2.8875 5.625 1.875C5.625 0.8625 6.4875 0 7.5 0C8.5125 0 9.375 0.8625 9.375 1.875ZM13.125 0C12.075 0 11.25 0.8625 11.25 1.875C11.25 2.8875 12.075 3.75 13.125 3.75C14.175 3.75 15 2.8875 15 1.875C15 0.8625 14.175 0 13.125 0ZM1.875 0C0.825 0 0 0.8625 0 1.875C0 2.8875 0.8625 3.75 1.875 3.75C2.8875 3.75 3.75 2.8875 3.75 1.875C3.75 0.8625 2.925 0 1.875 0Z" fill="#111111"/>
</svg>
