<svg width="28" height="28" viewBox="0 0 28 28" fill="none" xmlns="http://www.w3.org/2000/svg">
<path d="M27.5805 17.3866C25.7106 24.8866 18.1143 29.4511 10.6133 27.5808C3.11545 25.7109 -1.44898 18.1141 0.421768 10.6145C2.29077 3.11358 9.88708 -1.45129 17.3858 0.418582C24.8863 2.28846 29.4503 9.88608 27.5805 17.3866Z" fill="#DBDBDB"/>
<g opacity="0.6">
<path opacity="0.6" d="M14.1963 11.708L8.79468 14.1646L14.1963 17.3559L19.5958 14.1646L14.1963 11.708Z" fill="#010101"/>
</g>
<g opacity="0.45">
<path opacity="0.45" d="M8.79468 14.1647L14.1963 17.356V5.20239L8.79468 14.1647Z" fill="#010101"/>
</g>
<g opacity="0.8">
<path opacity="0.8" d="M14.1963 5.20239V17.356L19.5958 14.1647L14.1963 5.20239Z" fill="#010101"/>
</g>
<g opacity="0.45">
<path opacity="0.45" d="M8.79468 15.1881L14.1963 22.7979V18.3794L8.79468 15.1881Z" fill="#010101"/>
</g>
<g opacity="0.8">
<path opacity="0.8" d="M14.1963 18.3794V22.7979L19.6 15.1881L14.1963 18.3794Z" fill="#010101"/>
</g>
</svg>
