<svg width="28" height="28" viewBox="0 0 28 28" fill="none" xmlns="http://www.w3.org/2000/svg">
<circle cx="14" cy="14" r="14" fill="#111111"/>
<path fill-rule="evenodd" clip-rule="evenodd" d="M10.3125 13.5653C10.2938 13.7446 10.2842 13.9266 10.2842 14.1108C10.2842 14.2923 10.2935 14.4715 10.3116 14.6481H16.7626V16.5591H10.8955C11.771 18.1966 13.4975 19.3107 15.4841 19.3107C16.8432 19.3107 18.0785 18.7906 19.0054 17.9369L20.3 19.3425C19.0342 20.5085 17.3414 21.2217 15.4841 21.2217C12.4172 21.2217 9.80382 19.2801 8.80596 16.5591H6.30005V14.6481H8.39325C8.38 14.4708 8.37326 14.2916 8.37326 14.1108C8.37326 13.9273 8.38021 13.7453 8.39388 13.5653H6.30005V11.6543H8.80901C9.80913 8.93763 12.4204 7 15.4841 7C17.3413 7 19.0342 7.71318 20.3 8.87918L19.0054 10.2847C18.0785 9.43103 16.8432 8.91097 15.4841 8.91097C13.5008 8.91097 11.7769 10.0213 10.8999 11.6543H16.7626V13.5653H10.3125Z" fill="white"/>
</svg>
