<svg width="292" height="71" viewBox="0 0 292 71" fill="none" xmlns="http://www.w3.org/2000/svg">
<path d="M12.7908 38.2311H31.2576V19.2402H44.0484V68.4439H31.2576V48.2952H12.7908V68.4611H0V19.2402H12.7908V38.2311Z" fill="#111111"/>
<path d="M22.233 14.13C26.1349 14.13 29.298 10.9669 29.298 7.065C29.298 3.16311 26.1349 0 22.233 0C18.3311 0 15.168 3.16311 15.168 7.065C15.168 10.9669 18.3311 14.13 22.233 14.13Z" fill="#1443C3"/>
<path d="M82.5542 59.8939H64.9301L61.5354 68.4576H47.9568L66.8792 19.2539H80.8415L99.3734 68.4576H85.7468L82.5542 59.8939ZM79.0945 50.1073L73.874 34.4459H73.7439L68.4583 50.1073H79.0945Z" fill="#111111"/>
<path d="M104.93 19.2402L116.809 49.1276L128.754 19.2402H142.651L121.636 68.444H111.702L91.0323 19.2402H104.93Z" fill="#111111"/>
<path d="M173.84 30.0716H158.634V38.2928H173.056V49.1242H158.634V57.6126H173.84V68.444H145.844V19.2402H173.84V30.0716Z" fill="#111111"/>
<path d="M181.735 68.444V19.2402H194.523L217.95 49.3229H218.08V19.2402H230.878V68.444H218.087L194.66 38.2997H194.53V68.444H181.735Z" fill="#111111"/>
<path d="M250.643 20.7743C254.771 18.6934 259.331 17.6094 263.954 17.6094C268.578 17.6094 273.137 18.6934 277.266 20.7743C281.354 22.8405 284.822 25.9539 287.316 29.7971C289.878 33.6929 291.218 38.2646 291.166 42.927C291.166 50.8878 288.611 57.4031 283.5 62.4728C278.389 67.5425 271.874 70.0762 263.954 70.0739C256.039 70.0739 249.531 67.5402 244.429 62.4728C239.327 57.4054 236.771 50.8901 236.759 42.927C236.702 38.2664 238.037 33.6948 240.592 29.7971C243.087 25.9546 246.554 22.8415 250.643 20.7743V20.7743ZM273.744 33.9077C271.105 31.3939 267.6 29.9918 263.956 29.9918C260.311 29.9918 256.806 31.3939 254.168 33.9077C251.427 36.5179 250.057 39.5414 250.057 42.9783C250.057 47.1574 251.405 50.6492 254.102 53.4535C255.376 54.7841 256.905 55.8431 258.598 56.5666C260.292 57.29 262.114 57.663 263.956 57.663C265.797 57.663 267.62 57.29 269.313 56.5666C271.007 55.8431 272.536 54.7841 273.809 53.4535C276.506 50.6492 277.855 47.1574 277.855 42.9783C277.855 39.5529 276.485 36.5293 273.744 33.9077Z" fill="#111111"/>
</svg>
