<svg width="19" height="18" viewBox="0 0 19 18" fill="none" xmlns="http://www.w3.org/2000/svg">
<path d="M8.02888 9.38354C8.08123 9.85966 7.74098 10.2829 7.29603 10.3358L2.19219 10.9971C1.4855 11.0764 0.883514 10.468 0.988208 9.72741L1.72107 4.75459C1.79959 4.27847 2.21836 3.96106 2.68949 4.04041H2.71566C3.18678 4.11976 3.50087 4.54298 3.42235 5.0191L3.02974 7.71712L10.4107 0.257899C10.7509 -0.0859662 11.3006 -0.0859662 11.6408 0.257899C11.9811 0.601763 11.9811 1.15724 11.6408 1.5011L4.20755 9.01323L7.06046 8.64291C7.53159 8.56356 7.97654 8.90742 8.02888 9.38354ZM12.0596 8.77517V8.82807C12.1381 9.30419 12.5569 9.6216 13.028 9.54225L15.5407 9.17193L8.29062 16.4989C7.95036 16.8428 7.95036 17.3982 8.29062 17.7421C8.63088 18.086 9.18052 18.086 9.52077 17.7421L17.0326 10.1242L16.64 13.1661C16.5876 13.6422 16.9017 14.0654 17.399 14.1447C17.8701 14.1976 18.2889 13.8538 18.3412 13.4041L18.9694 8.27259C19.0479 7.55841 18.4459 6.95004 17.7131 7.05584L12.7663 7.79647C12.2952 7.84938 11.9811 8.29905 12.0596 8.77517Z" fill="#111111"/>
</svg>
