<svg width="22"
  height="24"
  viewBox="0 0 22 24"
  fill="none"
  xmlns="http://www.w3.org/2000/svg">
  <path opacity="0.7"
    d="M10.5124 0C12.2143 0 13.6045 1.34011 13.6825 3.02105C16.6478 4.27504 18.6446 7.20048 18.6446 10.5121V14.6853C19.9739 14.7872 21.0248 15.8999 21.0248 17.2562V18.844C21.0248 19.6115 20.4016 20.2314 19.6354 20.2314H1.38944C0.621398 20.2314 0 19.6113 0 18.844V17.2562C0 15.9015 1.04954 14.7872 2.38017 14.6853V10.5121C2.38017 7.20205 4.3775 4.27606 7.34228 3.02152C7.42013 1.33999 8.81165 0 10.5124 0ZM19.0413 18.2479V17.2562C19.0413 16.9291 18.7728 16.6612 18.4455 16.6612C17.46 16.6612 16.6612 15.8623 16.6612 14.8767V10.5121C16.6612 7.8196 14.9152 5.46438 12.3916 4.65569L11.7025 4.43487V3.1702C11.7025 2.516 11.1694 1.98347 10.5124 1.98347C9.85622 1.98347 9.32231 2.51615 9.32231 3.1702V4.435L8.63344 4.65592C6.11029 5.4651 4.36364 7.82123 4.36364 10.5121V14.8767C4.36364 15.862 3.56355 16.6612 2.57934 16.6612C2.25168 16.6612 1.98347 16.9296 1.98347 17.2562V18.2479H19.0413ZM6.7438 20.2314H8.72727C8.72727 21.2173 9.5265 22.0165 10.5124 22.0165C11.4983 22.0165 12.2975 21.2173 12.2975 20.2314H14.281C14.281 22.3127 12.5937 24 10.5124 24C8.43106 24 6.7438 22.3127 6.7438 20.2314Z"
    fill="white" />
</svg>
