<svg width="19" height="18" viewBox="0 0 19 18" fill="none" xmlns="http://www.w3.org/2000/svg">
<path d="M8.17672 15C8.25963 15.75 8.89547 16.3333 9.66756 16.3333C10.4397 16.3333 11.0755 15.75 11.1584 15H8.17672ZM12.8299 15C12.7433 16.6714 11.3606 18 9.66756 18C7.97457 18 6.59188 16.6714 6.50521 15H2.33469C1.506 15 0.834229 14.3291 0.834229 13.5006V13.1661C0.834229 11.9577 1.69325 10.9498 2.83423 10.7172V6.83308C2.83423 3.05831 5.89317 0 9.66756 0C13.442 0 16.5009 3.05903 16.5009 6.83308V10.717C17.6432 10.9492 18.5009 11.9566 18.5009 13.1661V13.5006C18.5009 14.3312 17.8292 15 17.0004 15H12.8299ZM16.8342 13.1661C16.8342 12.7054 16.4618 12.3333 15.9978 12.3333C15.3547 12.3333 14.8342 11.809 14.8342 11.1691V6.83308C14.8342 3.97949 12.5215 1.66667 9.66756 1.66667C6.81357 1.66667 4.5009 3.97886 4.5009 6.83308V11.1691C4.5009 11.8118 3.97775 12.3333 3.3373 12.3333C2.87514 12.3333 2.5009 12.7068 2.5009 13.1661V13.3333H16.8342V13.1661Z" fill="#111111"/>
</svg>
