<svg width="20" height="20" viewBox="0 0 20 20" fill="none" xmlns="http://www.w3.org/2000/svg">
<path d="M18.457 10.2735L18.457 10.2735C18.8261 10.6429 19.0334 11.1436 19.0334 11.6658C19.0334 12.1879 18.8261 12.6887 18.457 13.058L18.457 13.058L12.8927 18.6223L18.457 10.2735ZM18.457 10.2735L9.5618 1.37834C9.56163 1.37816 9.56146 1.37799 9.56129 1.37781C9.3794 1.19329 9.16239 1.0471 8.92305 0.947862C8.68371 0.848621 8.4269 0.798359 8.16781 0.800041H2.60375C2.08141 0.800041 1.58047 1.00754 1.21112 1.37689C0.841768 1.74624 0.634269 2.24718 0.634269 2.76952V8.33358C0.632587 8.59267 0.68285 8.84948 0.782091 9.08882C0.881327 9.32816 1.02752 9.54518 1.21204 9.72706C1.21221 9.72723 1.21239 9.7274 1.21256 9.72758L10.1067 18.6217C10.1068 18.6219 10.107 18.6221 10.1072 18.6223C10.2891 18.8067 10.5061 18.9529 10.7454 19.0521C10.9847 19.1514 11.2414 19.2016 11.5004 19.2M18.457 10.2735L11.5004 19.2M11.5004 19.2C11.759 19.2005 12.0151 19.1497 12.254 19.0507C12.4929 18.9516 12.7099 18.8062 12.8922 18.6227L11.5004 19.2ZM11.5004 19.2C11.5001 19.2 11.4998 19.2 11.4995 19.2L11.5 19L11.5004 19.2ZM1.94952 8.33509V8.33425V2.76952C1.94952 2.59601 2.01845 2.4296 2.14114 2.30691C2.26383 2.18422 2.43024 2.11529 2.60375 2.11529H8.16237V2.1153L8.16441 2.11528C8.25096 2.1144 8.33681 2.13086 8.41689 2.16369C8.49698 2.19653 8.56967 2.24507 8.63069 2.30646L8.63131 2.30707L17.5397 11.1911L17.5397 11.1911L17.5421 11.1934C17.6047 11.2538 17.6545 11.3263 17.6885 11.4064C17.7225 11.4865 17.74 11.5726 17.74 11.6597C17.74 11.7467 17.7225 11.8328 17.6885 11.9129C17.6545 11.993 17.6047 12.0655 17.5421 12.1259L17.542 12.1259L17.5396 12.1284L11.9748 17.6931L11.9748 17.6931L11.9724 17.6956C11.9119 17.7582 11.8395 17.808 11.7594 17.842C11.6793 17.8761 11.5931 17.8936 11.5061 17.8936C11.4191 17.8936 11.3329 17.8761 11.2528 17.842C11.1727 17.808 11.1003 17.7582 11.0398 17.6956L11.0373 17.6931L2.14153 8.80341C2.14146 8.80335 2.1414 8.80328 2.14133 8.80321C2.08019 8.74166 2.03178 8.66865 1.99887 8.58838C1.96592 8.50802 1.94915 8.42194 1.94952 8.33509Z" fill="#111" />
<path d="M5.00167 6.08293C5.50715 6.08293 5.91692 5.67316 5.91692 5.16769C5.91692 4.66221 5.50715 4.25244 5.00167 4.25244C4.4962 4.25244 4.08643 4.66221 4.08643 5.16769C4.08643 5.67316 4.4962 6.08293 5.00167 6.08293Z" fill="#111"/>
</svg>
