<svg version="1.2" xmlns="http://www.w3.org/2000/svg" viewBox="0 0 32 62" width="32" height="62">
	<title>server</title>
	<path id="Layer"  fill-rule="evenodd" fill="currentColor" d="m31.6 25.8v34.5c0 1-0.9 1.7-2 1.7h-27.6c-1.2 0-2-0.7-2-1.7v-34.5c0-1 0.8-1.7 2-1.7h27.6c1.1 0 2 0.7 2 1.7zm-6.9 8.8c0.6 0 1-0.3 1-0.8v-4.1c0-0.5-0.4-0.8-1-0.8h-17.8c-0.6 0-1 0.3-1 0.8v4.1c0 0.5 0.4 0.8 1 0.8zm1 4c0-0.5-0.4-0.8-1-0.8h-17.8c-0.5 0-0.9 0.3-0.9 0.8v4c0 0.5 0.4 0.9 0.9 0.9h17.8c0.6 0 1-0.4 1-0.9zm-11.8 10.2c0 1.1 0.8 2 1.9 2 1.1 0 2-0.9 2-2 0-1.1-0.9-1.9-2-1.9-1.1 0-1.9 0.8-1.9 1.9zm0 6.9c0 1.1 0.8 2 1.9 2 1.1 0 2-0.9 2-2 0-1.1-0.9-2-2-2-1.1 0-1.9 0.9-1.9 2z"/>
	<path id="Layer" stroke="currentColor" stroke-linecap="round" stroke-width="2" d="m5.4 5.8l4.1-3.8 4.1 3.8m-4.1 8.5v-12m17.3 8.5l-4.1 3.8-4.1-3.8m4.1-8.5v12.1"/>
</svg>