<svg fill="currentColor" width="58px" height="54px" viewBox="0 0 58 54" fill="none" xmlns="http://www.w3.org/2000/svg"> <path fill-rule="evenodd" clip-rule="evenodd" d="M43.8339 7.56984C41.5907 3.08354 36.9294 0 31.5427 0C25.2052 0 19.8717 4.2683 18.299 10.0676C17.5276 9.7233 16.672 9.53174 15.7714 9.53174C12.8205 9.53174 10.3534 11.588 9.74421 14.3362C9.47095 14.3111 9.19411 14.2983 8.91425 14.2983C3.99105 14.2983 0 18.2611 0 23.1493C0 28.0376 3.99105 32.0003 8.91425 32.0003C8.95701 32.0003 8.99969 32 9.0423 31.9994H45.1782L45.257 31.9996C52.0737 31.9996 57.5998 26.5128 57.5998 19.7444C57.5998 12.9761 52.0737 7.48926 45.257 7.48926C44.7757 7.48926 44.3008 7.51661 43.8339 7.56984Z" fill="currentColor"/> <path d="M26.2105 43.7896L22.1053 40.0001L18 43.7896" stroke="currentColor" stroke-width="2" stroke-linecap="round"/> <path d="M22.1052 52.316V40.2739" stroke="currentColor" stroke-width="2" stroke-linecap="round"/> <path d="M39.4713 48.8423L35.366 52.6318L31.2607 48.8423" stroke="currentColor" stroke-width="2" stroke-linecap="round"/> <path d="M35.366 40.3158V52.3579" stroke="currentColor" stroke-width="2" stroke-linecap="round"/></svg>