<svg width="19" height="18" viewBox="0 0 19 18" fill="none" xmlns="http://www.w3.org/2000/svg">
<path d="M17.7537 1.60001H1.63423C1.19243 1.60001 0.834229 1.2418 0.834229 0.800003C0.834229 0.358201 1.19243 0 1.63423 0H17.7537C18.1955 0 18.5537 0.358201 18.5537 0.800003C18.5537 1.2418 18.1955 1.60001 17.7537 1.60001Z" fill="#111111"/>
<path d="M17.7537 9.60001H1.63423C1.19243 9.60001 0.834229 9.2418 0.834229 8.8C0.834229 8.3582 1.19243 8 1.63423 8H17.7537C18.1955 8 18.5537 8.3582 18.5537 8.8C18.5537 9.2418 18.1955 9.60001 17.7537 9.60001Z" fill="#111111"/>
<path d="M17.7537 17.6H1.63423C1.19243 17.6 0.834229 17.2418 0.834229 16.8C0.834229 16.3582 1.19243 16 1.63423 16H17.7537C18.1955 16 18.5537 16.3582 18.5537 16.8C18.5537 17.2418 18.1955 17.6 17.7537 17.6Z" fill="#111111"/>
</svg>
